<svg width="40" height="40" viewBox="0 0 40 40" fill="none" xmlns="http://www.w3.org/2000/svg">
<path d="M19.9999 25.9617L14.1033 20.0634L15.2816 18.865L19.1666 22.75V8.33337H20.8333V22.75L24.7166 18.8667L25.8966 20.0634L19.9999 25.9617ZM11.0249 31.6667C10.2583 31.6667 9.61825 31.41 9.10492 30.8967C8.59047 30.3823 8.33325 29.7417 8.33325 28.975V24.9367H9.99992V28.975C9.99992 29.2306 10.1066 29.4656 10.3199 29.68C10.5344 29.8934 10.7694 30 11.0249 30H28.9749C29.2305 30 29.4655 29.8934 29.6799 29.68C29.8933 29.4656 29.9999 29.2306 29.9999 28.975V24.9367H31.6666V28.975C31.6666 29.7417 31.4099 30.3817 30.8966 30.895C30.3821 31.4095 29.7416 31.6667 28.9749 31.6667H11.0249Z" fill="black"/>
</svg>
