<svg width="40" height="40" viewBox="0 0 40 40" fill="none" xmlns="http://www.w3.org/2000/svg">
<path fill-rule="evenodd" clip-rule="evenodd" d="M18.8667 10.2933H8.33333C6.49167 10.2933 5 11.875 5 13.8233V31.47C5 33.42 6.49167 35 8.33333 35H26.6667C28.5083 35 30 33.42 30 31.47V18.5533L23.4767 25.46C22.907 26.0692 22.1651 26.4901 21.35 26.6667L16.8817 27.6133C13.965 28.23 11.395 25.5083 11.9783 22.4217L12.8717 17.69C13.0333 16.8367 13.43 16.0517 14.0117 15.4367L18.8667 10.2933Z" fill="black"/>
<path fill-rule="evenodd" clip-rule="evenodd" d="M33.0766 7.19667C32.91 6.7691 32.6627 6.37755 32.3482 6.04334C32.0403 5.7157 31.6696 5.45329 31.2582 5.27167C30.8527 5.09357 30.4145 5.0016 29.9716 5.0016C29.5286 5.0016 29.0905 5.09357 28.6849 5.27167C28.2736 5.45329 27.9029 5.7157 27.5949 6.04334L26.6849 7.00667L31.4382 12.04L32.3482 11.075C32.663 10.741 32.9103 10.3494 33.0766 9.92167C33.4193 9.04566 33.4193 8.07268 33.0766 7.19667ZM29.0832 14.535L24.3282 9.50001L16.3666 17.9333C16.2491 18.0585 16.1699 18.2146 16.1382 18.3833L15.2449 23.1167C15.1282 23.7333 15.6432 24.2767 16.2249 24.1533L20.6949 23.2083C20.8579 23.1729 21.0061 23.0886 21.1199 22.9667L29.0832 14.535Z" fill="black"/>
</svg>
