<svg width="48" height="48" viewBox="0 0 48 48" fill="none" xmlns="http://www.w3.org/2000/svg">
<g clip-path="url(#clip0_185_112)">
<path d="M18.0061 16.5C18.0061 17.6935 17.532 18.8381 16.6881 19.682C15.8442 20.5259 14.6996 21 13.5061 21C12.3126 21 11.168 20.5259 10.3241 19.682C9.48021 18.8381 9.0061 17.6935 9.0061 16.5C9.0061 15.3065 9.48021 14.1619 10.3241 13.318C11.168 12.4741 12.3126 12 13.5061 12C14.6996 12 15.8442 12.4741 16.6881 13.318C17.532 14.1619 18.0061 15.3065 18.0061 16.5Z" fill="#656565"/>
<path d="M6.0061 3C4.4148 3 2.88868 3.63214 1.76346 4.75736C0.638245 5.88258 0.00610352 7.4087 0.00610352 9V39C0.00610352 40.5913 0.638245 42.1174 1.76346 43.2426C2.88868 44.3679 4.4148 45 6.0061 45H42.0061C43.5974 45 45.1235 44.3679 46.2487 43.2426C47.374 42.1174 48.0061 40.5913 48.0061 39V9C48.0061 7.4087 47.374 5.88258 46.2487 4.75736C45.1235 3.63214 43.5974 3 42.0061 3H6.0061ZM42.0061 6C42.8018 6 43.5648 6.31607 44.1274 6.87868C44.69 7.44129 45.0061 8.20435 45.0061 9V28.5L33.6751 22.659C33.3938 22.5181 33.0752 22.4692 32.7646 22.5193C32.4539 22.5693 32.1669 22.7158 31.9441 22.938L20.8141 34.068L12.8341 28.752C12.546 28.5602 12.2004 28.4739 11.8559 28.5078C11.5114 28.5417 11.1893 28.6937 10.9441 28.938L3.0061 36V9C3.0061 8.20435 3.32217 7.44129 3.88478 6.87868C4.44739 6.31607 5.21045 6 6.0061 6H42.0061Z" fill="#656565"/>
</g>
<defs>
<clipPath id="clip0_185_112">
<rect width="48" height="48" fill="white"/>
</clipPath>
</defs>
</svg>
